<svg width="32" height="32" viewBox="0 0 32 32" fill="none" xmlns="http://www.w3.org/2000/svg">
<path fill-rule="evenodd" clip-rule="evenodd" d="M12.7307 7.00083C12.7307 7.00083 9.96583 6.89307 6.98291 9.13919C6.98291 9.13919 4 14.4329 4 20.9591C4 20.9591 5.65338 23.8889 10.1871 24C10.1871 24 10.8495 23.1026 11.5183 22.3129C8.97152 21.5249 7.98047 19.9489 7.98047 19.9489L8.83157 20.3968C8.99618 20.4659 9.16142 20.5362 9.32785 20.607C11.6788 21.6075 14.2663 22.7087 18.6493 21.9728C18.6722 21.9675 18.6951 21.9623 18.718 21.957C19.6862 21.7351 20.6559 21.5128 21.6241 21.072C21.8018 20.9791 21.9909 20.8862 22.1898 20.7885C22.7123 20.5319 23.3027 20.242 23.9333 19.831C23.9333 19.831 22.9406 21.407 20.288 22.195C20.8348 22.9796 21.6029 23.8788 21.6029 23.8788C25.319 23.796 27.1735 21.8142 27.7768 21.1694C27.9099 21.0273 27.9821 20.9501 28 20.9726C28 14.4565 24.9992 9.15266 24.9992 9.15266C22.3173 7.12374 19.8112 7.03282 19.3377 7.03113L19.035 7.33926C22.4605 8.34951 24.1188 9.92719 24.1188 9.92719C19.1489 7.39482 13.7803 7.25002 8.86412 9.25032C8.09113 9.59212 7.64849 9.81606 7.64849 9.81606C7.64849 9.81606 9.3035 8.12894 12.9536 7.22813L12.7307 7.00083ZM12.179 18.937C13.336 18.937 14.2783 17.9267 14.2783 16.6807C14.2783 15.4432 13.3426 14.4329 12.1855 14.4329L12.179 14.438C11.022 14.438 10.0797 15.4448 10.0797 16.6908C10.0797 17.9267 11.022 18.937 12.179 18.937ZM19.6941 18.937C20.8511 18.937 21.7933 17.9267 21.7933 16.6807C21.7933 15.4432 20.856 14.4329 19.6941 14.4329V14.438C18.5419 14.438 17.598 15.4448 17.5948 16.6908C17.5948 17.9267 18.537 18.937 19.6941 18.937Z" fill="white"/>
</svg>
