<svg width="25" height="18" viewBox="0 0 25 18" fill="none" xmlns="http://www.w3.org/2000/svg">
<path d="M24.4776 2.75038C24.1901 1.66777 23.3429 0.815139 22.2673 0.525787C20.3177 0 12.5 0 12.5 0C12.5 0 4.68232 0 2.73266 0.525787C1.65706 0.815185 0.80992 1.66777 0.522399 2.75038C0 4.71267 0 8.80681 0 8.80681C0 8.80681 0 12.901 0.522399 14.8632C0.80992 15.9459 1.65706 16.763 2.73266 17.0523C4.68232 17.5781 12.5 17.5781 12.5 17.5781C12.5 17.5781 20.3177 17.5781 22.2673 17.0523C23.3429 16.763 24.1901 15.9459 24.4776 14.8632C25 12.901 25 8.80681 25 8.80681C25 8.80681 25 4.71267 24.4776 2.75038ZM9.94316 12.524V5.08964L16.4772 8.8069L9.94316 12.524Z" fill="white"/>
</svg>
